PathFileType	4	(X/Y/Z)	C:/Users/beibeiliu/ov580/test_trc/User1\sequence.3_training_dense_left.trc
DataRate	CameraRate	NumFrames	NumMarkers	Units	OrigDataRate	OrigDataStartFrame	OrigNumFrames
120	120	15	19	mm	120	122	242
Frame#	Time	ThumbCMC			ThumbMCP			ThumbIP			ThumbTip			IndexMCP			IndexPIP			IndexTip			MiddleMCP			MiddlePIP			MiddleTip			RingMCP			RingPIP			RingTip			PinkyMCP			PinkyPIP			PinkyTip			BackHand1			BackHand2			BackHand3	
		X0	Y0	Z0	X1	Y1	Z1	X2	Y2	Z2	X3	Y3	Z3	X4	Y4	Z4	X5	Y5	Z5	X6	Y6	Z6	X7	Y7	Z7	X8	Y8	Z8	X9	Y9	Z9	X10	Y10	Z10	X11	Y11	Z11	X12	Y12	Z12	X13	Y13	Z13	X14	Y14	Z14	X15	Y15	Z15	X16	Y16	Z16	X17	Y17	Z17	X18	Y18	Z18	
121	1.00833	-218.049	99.3937	-8.56707	-200.74	93.9026	-36.802	-196.472	95.1697	-66.5231	-200.091	83.8974	-96.1068	-252.341	116.301	-86.8652	-237.805	98.621	-107.989	-216.251	78.1523	-83.8956	-271.299	102.37	-94.8067	-250.269	87.6094	-113.582	-231.463	61.7352	-89.7728	-287.842	84.2693	-86.9616	-268.695	67.3624	-109.837	-247.246	49.7083	-90.5843	-295.695	66.0859	-70.968	-279.811	58.5937	-96.679	-251.888	45.3625	-87.3591	-288.471	85.4569	-26.0921	-284.227	74.8638	9.99542	-261.767	106.519	-6.45213	
122	1.01667	-221.854	95.2692	-5.88275	-201.294	92.7517	-36.9444	-191.637	92.8743	-66.8642	-196.197	82.1517	-93.1271	-245.051	120.115	-88.6724	-231.709	101.659	-107.476	-212.248	80.982	-87.5797	-266.571	108.342	-94.8348	-244.725	88.9275	-113.873	-225.956	65.7027	-87.056	-283.788	91.6951	-92.149	-264.403	72.6458	-112.482	-247.989	53.4589	-92.9159	-295.003	74.4	-79.0338	-278.049	66.617	-98.7155	-251.244	52.5176	-86.0105	-290.797	90.3582	-30.2956	-288.329	82.4143	7.00942	-259.028	109.628	-7.81101	
123	1.025	-216.848	97.969	-6.73459	-197.377	91.6083	-36.8052	-190.865	90.2351	-63.5257	-189.519	78.8509	-88.9148	-234.002	124.003	-85.2476	-222.112	99.0532	-106.895	-207.1	78.8082	-80.4215	-256.654	113.951	-95.3174	-240.177	88.9522	-113.642	-224.46	66.3672	-86.8359	-275.815	101.069	-89.741	-259.168	78.8808	-113.078	-244.243	57.302	-90.9436	-290.461	82.6389	-76.3435	-272.428	73.5146	-99.3892	-251.496	52.8894	-90.6596	-287.92	96.0727	-28.1816	-286.098	90.9317	2.16647	-259.716	111.31	-7.24883	
124	1.03333	-216.566	94.5623	-5.9004	-197.967	85.279	-33.4198	-184.904	84.8559	-61.1773	-188.384	74.1128	-86.0975	-227.059	122.527	-84.3542	-217.413	99.6025	-105.294	-207.672	74.8642	-80.1805	-246.668	117.652	-93.9804	-232.893	89.1016	-113.216	-223.804	64.5073	-85.9466	-270.758	105.559	-92.1181	-253.721	85.8697	-114.388	-241.156	60.2149	-90.1799	-288.396	88.5454	-79.4421	-268.856	77.474	-101.352	-249.458	55.024	-88.7706	-280.901	106.084	-32.4386	-286.958	95.8497	2.8561	-253.146	112.737	-7.97509	
125	1.04167	-213.907	91.4316	-4.04037	-193.076	77.7601	-29.0862	-183.624	74.9962	-56.9115	-187.696	66.9956	-84.5696	-215.244	122.187	-81.4935	-205.954	98.7534	-104.584	-205.328	71.0439	-78.6481	-236.575	118.121	-97.4415	-226.734	89.5771	-112.933	-225.461	62.4498	-84.1411	-262.969	110.748	-94.8759	-244.375	85.3348	-114.056	-243.35	59.4918	-92.3723	-282.282	96.5143	-81.214	-264.272	83.8754	-103.523	-250.298	58.0207	-91.2417	-278.385	110.796	-34.4944	-283.181	103.98	-2.14737	-247.49	115.553	-9.33004	
126	1.05	-211.68	84.7553	-3.28703	-194.885	70.3107	-27.5801	-182.119	66.5945	-58.6009	-189.12	58.8569	-84.5761	-203.23	117.381	-84.3757	-198.477	92.5391	-102.636	-205.385	66.173	-74.5465	-229.392	118.895	-92.4246	-216.729	92.2318	-113.01	-221.382	61.4323	-87.5004	-251.56	113.862	-99.1525	-240.935	88.3384	-114.102	-240.844	62.6066	-94.6459	-276.574	104.305	-84.2177	-258.582	90.8829	-103.895	-249.974	61.0986	-89.8266	-269.183	118.616	-36.5469	-278.799	106.235	-0.96451	-242.424	117.711	-11.5885	
127	1.05833	-210.885	80.3214	-1.57405	-191.14	60.0619	-26.291	-185.713	57.5338	-55.1616	-190.573	51.1725	-87.2097	-196.041	110.89	-82.5121	-192.169	86.3563	-100.521	-203.242	60.7593	-73.0738	-213.409	114.722	-94.7157	-211.307	85.0807	-111.218	-222.886	58.0705	-84.2938	-239.16	114.679	-97.5595	-235.112	88.1179	-114.491	-237.188	60.9664	-90.1379	-266.662	109.027	-86.9649	-254.361	89.4736	-107.441	-248.133	61.6719	-87.6106	-260.682	120.043	-33.1909	-271.761	115.317	-5.90948	-235.677	117.088	-12.5095	
128	1.06667	-210.805	75.4307	-0.00769658	-193.351	52.8349	-24.3907	-186.094	47.7484	-53.7692	-192.416	40.505	-80.3853	-188.611	103.088	-77.9329	-188.427	75.2068	-97.9801	-197.645	54.7257	-74.1466	-206.777	107.941	-95.0723	-204.832	77.4096	-110.341	-223.051	54.9261	-83.6691	-229.689	110.989	-99.3694	-227.751	84.3344	-114.016	-237.095	58.9267	-88.3187	-255.506	109.45	-85.1304	-247.085	86.1365	-106.465	-246.194	60.2722	-82.5643	-252.091	121.649	-37.4959	-267.082	118.479	-5.11781	-227.496	113.938	-7.8492	
129	1.075	-208.748	71.2885	1.77917	-195.131	47.1845	-22.4851	-186.872	40.1044	-52.8647	-195.781	34.5536	-74.6069	-179.828	91.8229	-73.7443	-184.418	62.2863	-93.7426	-198.314	46.6859	-69.44	-202.752	101.228	-92.4289	-202.805	67.7994	-106.706	-222.713	48.3332	-80.0392	-223.267	104.294	-98.0129	-224.868	75.2448	-112.105	-237.426	55.2096	-86.945	-249.354	107.717	-87.8667	-240.036	81.7087	-103.219	-244.793	56.2826	-80.1761	-244.384	121.489	-36.9916	-257.872	120.105	-5.6597	-219.266	110.266	-9.62662	
130	1.08333	-205.559	70.3803	0.636009	-192.337	42.9709	-22.5179	-189.301	32.4194	-50.0294	-199.506	26.5159	-75.9183	-176.337	81.9064	-73.9941	-185.94	53.3884	-92.8479	-203.028	42.2388	-62.1759	-195.273	90.7212	-92.0811	-202.166	59.5503	-105.564	-222.31	43.0643	-77.0777	-220.752	99.9382	-95.8622	-221.227	63.7887	-107.547	-237.714	49.0643	-80.8503	-241.626	101.298	-88.9231	-237.819	76.1932	-100.62	-246.869	53.9983	-77.7974	-237.164	122.347	-42.3366	-252.812	120.685	-9.22164	-215.621	109.392	-8.84309	
131	1.09167	-205.123	69.4418	2.19624	-194.631	39.9898	-19.8977	-191.99	26.7446	-45.0031	-206.331	22.4614	-71.5962	-176.695	72.071	-77.9174	-186.683	45.7957	-91.4172	-206.476	38.825	-61.3883	-194.921	82.1439	-94.8109	-205.272	49.8538	-102.747	-227.605	39.2072	-70.6434	-219.669	90.0337	-97.5383	-227.755	57.2529	-106.813	-242.39	45.4338	-80.1584	-239.179	96.1832	-87.131	-241.833	69.3277	-99.1468	-251.037	48.4091	-72.0734	-234.894	119.97	-41.7986	-243.986	123.357	-9.06592	-211.699	108.439	-10.8923	
132	1.1	-199.796	68.2686	1.97459	-192.765	34.0109	-18.0328	-193.813	22.3616	-44.9926	-210.579	17.1567	-67.2686	-179.212	65.1505	-78.1524	-194.221	37.3335	-88.2617	-207.602	33.3761	-56.2058	-196.476	72.5967	-94.9785	-211.816	42.2013	-99.1726	-230.758	35.6995	-63.4604	-216.706	80.3885	-96.5502	-231.662	49.3723	-100.919	-242.171	39.2825	-72.4987	-238.935	90.9464	-86.6463	-243.821	61.9808	-93.7035	-252.262	47.5971	-65.8716	-226.826	115.194	-44.0098	-238.694	123.82	-6.78005	-201.355	106.083	-16.0596	
133	1.10833	-193.816	64.8907	4.00333	-193.159	31.9787	-11.6793	-198.695	19.0941	-39.1484	-218.066	14.6046	-65.7207	-178.512	56.4638	-75.6754	-197.808	30.2701	-83.2388	-209.237	30.829	-48.4837	-198.489	66.0449	-92.4543	-212.028	33.8271	-93.2091	-233.197	32.7708	-60.0701	-222.479	78.6903	-94.6508	-232.56	44.7891	-96.0715	-245.031	37.4757	-63.2847	-242.391	88.1606	-86.3954	-248.726	58.8726	-91.9609	-251.202	45.1112	-63.124	-222.176	116.453	-40.8113	-231.406	125.714	-9.34266	-198.954	105.74	-15.0421	
134	1.11667	-192.921	66.5566	7.78493	-193.605	32.5502	-11.9861	-200.45	17.1702	-35.1679	-220.558	12.0433	-55.2954	-180.548	50.2801	-74.2645	-198.131	19.6246	-74.4437	-211.104	28.6394	-44.5798	-198.054	57.9927	-88.9171	-216.516	29.527	-89.5673	-229.852	29.2787	-49.424	-223.344	71.4169	-91.9729	-236.169	38.1561	-88.9728	-248.807	36.2438	-55.3549	-242.212	81.5291	-86.0677	-247.285	52.2002	-82.7325	-250.201	41.907	-53.4842	-219.068	111.323	-45.5413	-222.066	125.276	-13.589	-191.399	103.388	-17.3022	
135	1.125	-187.367	68.6186	11.924	-189.025	31.3122	-2.578	-199.06	13.8255	-28.4435	-220.754	5.2832	-47.5049	-182.395	41.1599	-72.7765	-203.02	17.3439	-68.182	-210.059	27.8529	-35.526	-200.63	52.0011	-84.6862	-216.335	22.6502	-80.3848	-232.369	30.2441	-40.1544	-221.517	60.5791	-86.5482	-240.716	31.6898	-80.0997	-245.647	30.8074	-47.0841	-241.464	78.1919	-76.1885	-250.301	46.5838	-75.4969	-251.797	37.0812	-45.411	-215.822	109.227	-42.3103	-223.783	125.105	-15.3792	-189.317	101.984	-16.7965	
